# File created by Blade
# Date/Time:  Tue Apr 07 20:13:45 2015
#---------------------------------------------------------
:version 1.10
:name HOM
:units
  mass 1.0
  length 1.000000
  angle deg
:documentation
     Acclaim Skeleton File
:root
   axis xyz
   order TX TY TZ RX RY RZ
   position 0.000000 0.000000 0.000000
   orientation 0 0 0
:bonedata
   begin
      id 1
      name Spine_dum
      direction 0.000000 1.000000 0.000000
      length 4.885285
      axis 0.0 0.0 0.0 xyz
   end
   begin
      id 2
      name LeftUpLeg_dum
      direction 1.000000 0.000000 0.000000
      length 2.672193
      axis 0.0 0.0 0.0 xyz
   end
   begin
      id 3
      name RightUpLeg_dum
      direction -1.000000 0.000000 0.000000
      length 2.672193
      axis 0.0 0.0 0.0 xyz
   end
   begin
      id 4
      name Spine
      direction 0.000000 1.000000 0.000000
      length 0.000000
      axis 0.0 0.0 0.0 xyz
      dof rx ry rz
   end
   begin
      id 5
      name Spine_dum1
      direction 0.000000 1.000000 0.000000
      length 16.494159
      axis 0.0 0.0 0.0 xyz
   end
   begin
      id 6
      name Spine_dum2
      direction 0.000000 1.000000 0.000000
      length 10.663448
      axis 0.0 0.0 0.0 xyz
   end
   begin
      id 7
      name Spine_dum3
      direction 0.000000 1.000000 0.000000
      length 10.663448
      axis 0.0 0.0 0.0 xyz
   end
   begin
      id 8
      name Head
      direction 0.000000 1.000000 0.000000
      length 4.527550
      axis 0.0 0.0 0.0 xyz
      dof rx ry rz
   end
   begin
      id 9
      name LeftShoulder
      direction 1.000000 0.000000 0.000000
      length 7.531907
      axis 0.0 0.0 -90.0 xyz
      dof rx ry rz
   end
   begin
      id 10
      name LeftArm
      direction 1.000000 0.000000 0.000000
      length 10.229199
      axis 0.0 0.0 -90.0 xyz
      dof rx ry rz
   end
   begin
      id 11
      name LeftForeArm
      direction 1.000000 0.000000 0.000000
      length 8.673495
      axis 0.0 0.0 -90.0 xyz
      dof ry rz rx
   end
   begin
      id 12
      name LeftHand
      direction 0.000000 0.000000 0.000000
      length 0.000000
      axis 0.0 0.0 -90.0 xyz
      dof rx ry rz
   end
   begin
      id 13
      name LeftHand_dum1
      direction 0.000000 0.000000 0.000000
      length 0.000000
      axis 0.0 0.0 -90.0 xyz
   end
   begin
      id 14
      name LeftHand_dum2
      direction 1.000000 0.000000 0.000000
      length 3.937000
      axis 0.0 0.0 -90.0 xyz
   end
   begin
      id 15
      name LeftHandThumb1
      direction 0.000000 0.000000 1.000000
      length 3.937000
      axis 0.0 0.0 -90.0 xyz
      dof rx rz ry
   end
   begin
      id 16
      name RightShoulder
      direction -1.000000 0.000000 0.000000
      length 7.531907
      axis 0.0 0.0 90.0 xyz
      dof rx ry rz
   end
   begin
      id 17
      name RightArm
      direction -1.000000 0.000000 0.000000
      length 10.229199
      axis 0.0 0.0 90.0 xyz
      dof rx ry rz
   end
   begin
      id 18
      name RightForeArm
      direction -1.000000 0.000000 0.000000
      length 8.673495
      axis 0.0 0.0 90.0 xyz
      dof ry rz rx
   end
   begin
      id 19
      name RightHand
      direction 0.000000 0.000000 0.000000
      length 0.000000
      axis 0.0 0.0 90.0 xyz
      dof rx ry rz
   end
   begin
      id 20
      name RightHand_dum1
      direction 0.000000 0.000000 0.000000
      length 0.000000
      axis 0.0 0.0 90.0 xyz
   end
   begin
      id 21
      name RightHand_dum2
      direction -1.000000 0.000000 0.000000
      length 3.937000
      axis 0.0 0.0 90.0 xyz
   end
   begin
      id 22
      name RightHandThumb1
      direction 0.000000 0.000000 1.000000
      length 3.937000
      axis 0.0 0.0 90.0 xyz
      dof rx rz ry
   end
   begin
      id 23
      name LeftUpLeg
      direction 0.000000 -1.000000 0.000000
      length 16.263388
      axis 0.0 0.0 0.0 xyz
      dof rx ry rz
   end
   begin
      id 24
      name LeftLeg
      direction 0.000000 -1.000000 0.000000
      length 14.328163
      axis 0.0 0.0 0.0 xyz
      dof rx ry rz
   end
   begin
      id 25
      name LeftFoot
      direction 0.000000 -0.258819 0.965926
      length 5.031290
      axis 15.0 0.0 0.0 xyz
      dof rx ry rz
   end
   begin
      id 26
      name LeftToeBase
      direction 0.000000 0.000000 1.000000
      length 2.952750
      axis 0.0 0.0 0.0 xyz
      dof rx ry rz
   end
   begin
      id 27
      name RightUpLeg
      direction 0.000000 -1.000000 0.000000
      length 16.263388
      axis 0.0 0.0 0.0 xyz
      dof rx ry rz
   end
   begin
      id 28
      name RightLeg
      direction 0.000000 -1.000000 0.000000
      length 14.328163
      axis 0.0 0.0 0.0 xyz
      dof rx ry rz
   end
   begin
      id 29
      name RightFoot
      direction 0.000000 -0.258819 0.965926
      length 5.031290
      axis 15.0 0.0 0.0 xyz
      dof rx ry rz
   end
   begin
      id 30
      name RightToeBase
      direction 0.000000 0.000000 1.000000
      length 2.952750
      axis 0.0 0.0 0.0 xyz
      dof rx ry rz
   end
:hierarchy
   begin
      root Spine_dum LeftUpLeg_dum RightUpLeg_dum
      Spine_dum Spine
      LeftUpLeg_dum LeftUpLeg
      RightUpLeg_dum RightUpLeg
      Spine Spine_dum1 Spine_dum2 Spine_dum3
      Spine_dum1 Head
      Spine_dum2 LeftShoulder
      Spine_dum3 RightShoulder
      LeftShoulder LeftArm
      LeftArm LeftForeArm
      LeftForeArm LeftHand
      LeftHand LeftHand_dum1 LeftHand_dum2
      LeftHand_dum1 LeftHandThumb1
      RightShoulder RightArm
      RightArm RightForeArm
      RightForeArm RightHand
      RightHand RightHand_dum1 RightHand_dum2
      RightHand_dum1 RightHandThumb1
      LeftUpLeg LeftLeg
      LeftLeg LeftFoot
      LeftFoot LeftToeBase
      RightUpLeg RightLeg
      RightLeg RightFoot
      RightFoot RightToeBase
   end

# File created by Blade
# Date/Time:  Tue Apr 07 20:13:55 2015
# Frame Rate: 120.000 fps
#------------------------------------------------------
:FULLY-SPECIFIED
:DEGREES
886
root 1.493801 33.179453 -7.845476 -33.192597 19.421792 -24.454064
Spine 23.490773 -5.414085 20.623276
Head 7.667700 3.471875 7.777342
LeftShoulder -5.444730 37.956641 22.253045
LeftArm 82.608662 24.229689 -35.734488
LeftForeArm -64.282737 -0.000000 92.355003
LeftHand 6.206640 -0.000000 19.723635
LeftHandThumb1 -26.253704 0.000000 33.147579
RightShoulder -0.122423 1.286479 -23.750215
RightArm 24.325445 -31.242687 68.210926
RightForeArm 51.109914 0.000000 86.207562
RightHand -4.264893 -0.000000 29.455333
RightHandThumb1 -24.326973 -0.000000 -32.862282
LeftUpLeg 13.663449 0.539882 20.445319
LeftLeg 23.090253 -0.000000 -0.000000
LeftFoot -18.351875 8.547649 -7.130536
LeftToeBase -6.917441 -0.000000 0.000000
RightUpLeg -117.863486 3.380348 18.002530
RightLeg 57.735989 -0.000000 -0.000000
RightFoot 39.568343 -11.339210 7.760882
RightToeBase 28.635522 -0.000000 -0.000000
887
root 1.473491 33.187392 -7.885856 -32.640521 18.988835 -24.358132
Spine 23.098945 -5.122782 20.798853
Head 7.836284 3.743391 7.785573
LeftShoulder -5.532019 38.004003 22.123665
LeftArm 82.559690 24.346078 -35.748416
LeftForeArm -64.245132 0.000000 92.000867
LeftHand 5.872658 -0.000000 19.143445
LeftHandThumb1 -26.253704 0.000000 33.147579
RightShoulder -0.010985 1.293710 -23.802726
RightArm 24.366933 -31.408979 68.142475
RightForeArm 50.942034 -0.000000 85.907055
RightHand -4.766176 -0.000000 29.584156
RightHandThumb1 -24.326973 -0.000000 -32.862282
LeftUpLeg 13.464077 0.366495 20.225069
LeftLeg 22.748969 -0.000000 -0.000000
LeftFoot -18.611000 9.328175 -7.152634
LeftToeBase -6.366784 -0.000000 0.000000
RightUpLeg -117.815911 3.803141 18.135302
RightLeg 59.784660 -0.000000 -0.000000
RightFoot 39.723101 -11.036975 8.639382
RightToeBase 28.501559 -0.000000 -0.000000
888
root 1.459623 33.190507 -7.925490 -32.183961 18.594381 -24.267194
Spine 22.824825 -4.880774 20.983987
Head 7.891294 3.957787 7.711052
LeftShoulder -5.572090 38.009798 21.977194
LeftArm 82.437161 24.424996 -35.751572
LeftForeArm -64.485508 -0.000000 91.710974
LeftHand 5.580321 -0.000000 18.451400
LeftHandThumb1 -26.253704 0.000000 33.147579
RightShoulder 0.050021 1.180345 -23.866089
RightArm 24.691180 -31.646064 67.948868
RightForeArm 50.730078 0.000000 85.519002
RightHand -4.603522 -0.000000 30.200006
RightHandThumb1 -24.326973 -0.000000 -32.862282
LeftUpLeg 13.353193 0.024527 19.949583
LeftLeg 22.426943 -0.000000 -0.000000
LeftFoot -19.060551 9.997504 -7.562356
LeftToeBase -5.733284 -0.000000 0.000000
RightUpLeg -117.641279 4.218460 18.319705
RightLeg 61.674977 -0.000000 -0.000000
RightFoot 39.979907 -11.046430 9.039434
RightToeBase 28.531054 -0.000000 -0.000000
889
root 1.442842 33.185350 -7.968789 -31.698694 18.249532 -24.166415
Spine 22.560900 -4.672977 21.102909
Head 7.817941 4.201949 7.687939
LeftShoulder -5.681702 38.005507 21.793649
LeftArm 82.373478 24.472793 -35.631720
LeftForeArm -64.985855 -0.000000 91.447451
LeftHand 5.492497 0.000000 18.419733
LeftHandThumb1 -26.253704 0.000000 33.147579
RightShoulder 0.159051 1.304436 -23.923192
RightArm 24.840582 -31.978871 67.776865
RightForeArm 50.773376 0.000000 85.196740
RightHand -5.033475 -0.000000 30.606844
RightHandThumb1 -24.326973 -0.000000 -32.862282
LeftUpLeg 13.170025 -0.322259 19.655710
LeftLeg 22.187723 -0.000000 -0.000000
LeftFoot -19.582927 10.489610 -8.018437
LeftToeBase -5.072587 -0.000000 0.000000
RightUpLeg -117.462032 4.615785 18.433336
RightLeg 63.427570 -0.000000 -0.000000
RightFoot 40.017517 -11.310360 9.378895
RightToeBase 28.666007 -0.000000 -0.000000
890
root 1.423416 33.174748 -8.012218 -31.236321 17.921664 -24.065075
Spine 22.353419 -4.446622 21.198530
Head 7.636475 4.420139 7.723066
LeftShoulder -5.746718 38.009071 21.647417
LeftArm 82.340483 24.459473 -35.421981
LeftForeArm -65.475247 -0.000000 91.217338
LeftHand 5.569481 0.000000 18.450171
LeftHandThumb1 -26.253704 0.000000 33.147579
RightShoulder 0.244372 1.382092 -23.914403
RightArm 25.011491 -32.256967 67.560834
RightForeArm 50.725455 -0.000000 84.910314
RightHand -5.313739 0.000000 30.829840
RightHandThumb1 -24.326973 -0.000000 -32.862282
LeftUpLeg 12.954391 -0.590630 19.413709
LeftLeg 22.079853 -0.000000 -0.000000
LeftFoot -20.102967 10.710018 -8.394588
LeftToeBase -4.918546 -0.000000 0.000000
RightUpLeg -117.219296 4.991957 18.499087
RightLeg 65.042893 -0.000000 -0.000000
RightFoot 39.957495 -11.592692 9.695269
RightToeBase 28.746083 -0.000000 -0.000000
891
root 1.400825 33.158279 -8.055559 -30.760758 17.600262 -23.916929
Spine 22.197482 -4.180358 21.226527
Head 7.337932 4.641988 7.792397
LeftShoulder -5.814138 38.030458 21.536013
LeftArm 82.363856 24.408524 -35.074860
LeftForeArm -65.975095 0.000000 91.056079
LeftHand 5.674416 -0.000000 18.809579
LeftHandThumb1 -26.253704 0.000000 33.147579
RightShoulder 0.314793 1.489903 -23.863427
RightArm 25.138339 -32.556320 67.372890
RightForeArm 50.567834 -0.000000 84.652939
RightHand -5.736752 0.000000 30.914785
RightHandThumb1 -24.326973 -0.000000 -32.862282
LeftUpLeg 12.731002 -0.807800 19.171370
LeftLeg 22.015822 -0.000000 -0.000000
LeftFoot -20.648462 10.689146 -9.032973
LeftToeBase -4.967177 -0.000000 0.000000
RightUpLeg -116.966765 5.374741 18.459575
RightLeg 66.604988 -0.000000 -0.000000
RightFoot 39.706237 -11.636457 9.797309
RightToeBase 28.791121 -0.000000 -0.000000
892
root 1.378283 33.137875 -8.100979 -30.310676 17.322426 -23.775334
Spine 22.095709 -3.986760 21.221563
Head 6.926246 4.932778 7.855606
LeftShoulder -5.891249 38.043811 21.444074
LeftArm 82.333371 24.386627 -34.743065
LeftForeArm -66.385657 -0.000000 90.951472
LeftHand 5.776810 -0.000000 19.167359
LeftHandThumb1 -26.253704 0.000000 33.147579
RightShoulder 0.422328 1.561814 -23.799069
RightArm 25.343400 -32.855561 67.169939
RightForeArm 50.421063 -0.000000 84.377044
RightHand -6.329293 -0.000000 31.302121
RightHandThumb1 -24.326973 -0.000000 -32.862282
LeftUpLeg 12.455737 -0.989817 18.968016
LeftLeg 22.051747 -0.000000 -0.000000
LeftFoot -21.300368 10.259963 -9.890939
LeftToeBase -4.901202 -0.000000 0.000000
RightUpLeg -116.716586 5.712253 18.376753
RightLeg 68.119443 -0.000000 -0.000000
RightFoot 39.499120 -11.546259 9.711131
RightToeBase 28.793980 -0.000000 -0.000000
893
root 1.353180 33.115616 -8.146409 -29.863260 17.057299 -23.641042
Spine 22.025021 -3.769063 21.211888
Head 6.414097 5.217359 7.934728
LeftShoulder -5.969569 38.059595 21.383656
LeftArm 82.309611 24.374773 -34.425623
LeftForeArm -66.679476 0.000000 90.827038
LeftHand 5.959496 0.000000 19.286593
LeftHandThumb1 -26.253704 0.000000 33.147579
RightShoulder 0.561667 1.658519 -23.756245
RightArm 25.067048 -32.877548 67.274432
RightForeArm 50.755279 -0.000000 84.130538
RightHand -4.829422 0.000000 30.247280
RightHandThumb1 -24.326973 -0.000000 -32.862282
LeftUpLeg 12.118386 -1.084112 18.829369
LeftLeg 22.221275 -0.000000 -0.000000
LeftFoot -21.981622 9.396206 -10.777817
LeftToeBase -4.809695 -0.000000 0.000000
RightUpLeg -116.463905 6.014200 18.297681
RightLeg 69.613575 -0.000000 -0.000000
RightFoot 39.257176 -11.364225 9.614056
RightToeBase 28.975122 -0.000000 -0.000000
894
root 1.332352 33.088414 -8.194800 -29.367844 16.857951 -23.442948
Spine 21.944630 -3.514285 21.130669
Head 5.831357 5.513877 8.029254
LeftShoulder -6.026629 38.096905 21.349088
LeftArm 82.276221 24.353438 -34.168868
LeftForeArm -66.835038 -0.000000 90.704471
LeftHand 5.887128 -0.000000 19.232435
LeftHandThumb1 -26.253704 0.000000 33.147579
RightShoulder 0.655688 1.710248 -23.678364
RightArm 24.825410 -32.936452 67.339134
RightForeArm 51.064699 -0.000000 83.892466
RightHand -3.311218 -0.000000 29.296501
RightHandThumb1 -24.326973 -0.000000 -32.862282
LeftUpLeg 11.687350 -1.170104 18.619721
LeftLeg 22.500678 -0.000000 -0.000000
LeftFoot -22.627593 7.990549 -11.806524
LeftToeBase -4.848181 -0.000000 0.000000
RightUpLeg -116.277967 6.304769 18.138462
RightLeg 71.071771 -0.000000 -0.000000
RightFoot 39.148915 -11.306997 9.427893
RightToeBase 29.215603 -0.000000 -0.000000
895
root 1.312928 33.060043 -8.246486 -28.895602 16.697932 -23.256438
Spine 21.903948 -3.309991 21.056496
Head 5.204822 5.820207 8.062545
LeftShoulder -6.131736 38.128177 21.275413
LeftArm 82.254578 24.359525 -33.951091
LeftForeArm -67.053830 -0.000000 90.548100
LeftHand 5.943959 -0.000000 19.012778
LeftHandThumb1 -26.253704 0.000000 33.147579
RightShoulder 0.731587 1.730488 -23.651173
RightArm 24.806421 -33.074486 67.396259
RightForeArm 50.936753 -0.000000 83.638390
RightHand -2.956465 -0.000000 29.319226
RightHandThumb1 -24.326973 -0.000000 -32.862282
LeftUpLeg 11.182998 -1.282624 18.417811
LeftLeg 22.926649 -0.000000 -0.000000
LeftFoot -23.220173 6.096516 -12.866783
LeftToeBase -4.740278 -0.000000 0.000000
RightUpLeg -116.105061 6.550272 17.990639
RightLeg 72.546713 -0.000000 -0.000000
RightFoot 39.113961 -11.420520 9.457500
RightToeBase 29.367059 -0.000000 -0.000000
896
root 1.300456 33.028786 -8.299893 -28.419489 16.601734 -23.040112
Spine 21.863488 -3.138883 20.954803
Head 4.561086 6.108747 8.009715
LeftShoulder -6.201189 38.181775 21.201493
LeftArm 82.196040 24.380033 -33.837982
LeftForeArm -67.249271 0.000000 90.407001
LeftHand 5.895961 -0.000000 18.726953
LeftHandThumb1 -26.253704 0.000000 33.147579
RightShoulder 0.788971 1.664218 -23.671447
RightArm 24.875942 -33.161564 67.480279
RightForeArm 50.767548 -0.000000 83.378917
RightHand -2.795451 -0.000000 29.574063
RightHandThumb1 -24.326973 -0.000000 -32.862282
LeftUpLeg 10.618727 -1.465226 18.153499
LeftLeg 23.412284 -0.000000 -0.000000
LeftFoot -23.658905 4.209603 -13.771184
LeftToeBase -5.039949 -0.000000 0.000000
RightUpLeg -115.952680 6.715579 17.865451
RightLeg 73.993025 -0.000000 -0.000000
RightFoot 39.206174 -11.600756 9.545633
RightToeBase 29.266927 -0.000000 -0.000000
